<svg width="320" height="51" viewBox="0 0 320 51" fill="none" xmlns="http://www.w3.org/2000/svg">
<path d="M249.069 0.303823C248.894 -0.0867494 248.394 -0.102372 248.184 0.266328C247.215 1.95048 245.481 3.00034 243.499 3.00034H240.999C237.686 3.00034 234.999 5.68748 234.999 8.99953C234.999 9.21825 235.024 9.4276 235.045 9.64007C237.039 8.21214 239.918 6.9998 243.999 6.9998C244.274 6.9998 244.499 7.22477 244.499 7.49973C244.499 7.7747 244.274 7.99967 243.999 7.99967C236.142 7.99967 232.811 12.8146 232.073 14.6238C231.867 15.1331 232.111 15.7143 232.62 15.9236C233.133 16.1361 233.714 15.8892 233.927 15.383C233.973 15.2706 234.58 13.8864 236.174 12.5522C237.186 13.9239 239.111 15.2331 241.64 14.9644C246.547 14.6082 250 10.2087 250 4.82197C250 3.25343 249.662 1.62865 249.069 0.303823Z" fill="#279A40"/>
<path d="M3.735 50V18.5H17.37C20.19 18.5 22.62 18.965 24.66 19.895C26.7 20.795 28.275 22.1 29.385 23.81C30.495 25.52 31.05 27.56 31.05 29.93C31.05 32.27 30.495 34.295 29.385 36.005C28.275 37.715 26.7 39.035 24.66 39.965C22.62 40.865 20.19 41.315 17.37 41.315H7.785L11.025 38.03V50H3.735ZM11.025 38.84L7.785 35.375H16.965C19.215 35.375 20.895 34.895 22.005 33.935C23.115 32.975 23.67 31.64 23.67 29.93C23.67 28.19 23.115 26.84 22.005 25.88C20.895 24.92 19.215 24.44 16.965 24.44H7.785L11.025 20.975V38.84ZM36.2545 50V18.5H43.5445V44.06H59.3395V50H36.2545ZM59.4485 50L73.4885 18.5H80.6885L94.7735 50H87.1235L75.6035 22.19H78.4835L66.9185 50H59.4485ZM66.4685 43.25L68.4035 37.715H84.6035L86.5835 43.25H66.4685ZM98.0416 50V18.5H104.072L122.657 41.18H119.732V18.5H126.932V50H120.947L102.317 27.32H105.242V50H98.0416ZM140.909 50V24.44H130.829V18.5H158.279V24.44H148.199V50H140.909ZM156.48 50L170.52 18.5H177.72L191.805 50H184.155L172.635 22.19H175.515L163.95 50H156.48ZM163.5 43.25L165.435 37.715H181.635L183.615 43.25H163.5ZM195.073 50V18.5H208.708C211.528 18.5 213.958 18.965 215.998 19.895C218.038 20.795 219.613 22.1 220.723 23.81C221.833 25.52 222.388 27.56 222.388 29.93C222.388 32.27 221.833 34.295 220.723 36.005C219.613 37.685 218.038 38.975 215.998 39.875C213.958 40.775 211.528 41.225 208.708 41.225H199.123L202.363 38.03V50H195.073ZM215.098 50L207.223 38.57H215.008L222.973 50H215.098ZM202.363 38.84L199.123 35.42H208.303C210.553 35.42 212.233 34.94 213.343 33.98C214.453 32.99 215.008 31.64 215.008 29.93C215.008 28.19 214.453 26.84 213.343 25.88C212.233 24.92 210.553 24.44 208.303 24.44H199.123L202.363 20.975V38.84ZM256.924 50.54C252.454 50.54 248.959 49.295 246.439 46.805C243.919 44.315 242.659 40.76 242.659 36.14V18.5H249.949V35.87C249.949 38.87 250.564 41.03 251.794 42.35C253.024 43.67 254.749 44.33 256.969 44.33C259.189 44.33 260.914 43.67 262.144 42.35C263.374 41.03 263.989 38.87 263.989 35.87V18.5H271.189V36.14C271.189 40.76 269.929 44.315 267.409 46.805C264.889 49.295 261.394 50.54 256.924 50.54ZM278.393 50V18.5H284.423L297.833 40.73H294.638L307.823 18.5H313.808L313.898 50H307.058L307.013 28.985H308.273L297.743 46.67H294.458L283.703 28.985H285.233V50H278.393Z" fill="#279A40"/>
<path d="M228.164 50V18.5H235.454V50H228.164Z" fill="#C57736"/>
</svg>
