<svg width="78" height="69" viewBox="0 0 78 69" fill="none" xmlns="http://www.w3.org/2000/svg">
<path d="M73.9642 1.31024C73.2058 -0.374107 71.0389 -0.44148 70.1316 1.14854C65.9332 8.41143 58.4169 12.939 49.8307 12.939H38.9963C24.6408 12.939 12.9938 24.5272 12.9938 38.8105C12.9938 39.7537 13.1022 40.6565 13.197 41.5728C21.8374 35.4148 34.3104 30.1866 51.9975 30.1866C53.1893 30.1866 54.1644 31.1568 54.1644 32.3426C54.1644 33.5284 53.1893 34.4986 51.9975 34.4986C17.9505 34.4986 3.51376 55.2632 0.317621 63.065C-0.576214 65.2614 0.480136 67.7677 2.68764 68.6705C4.90868 69.5868 7.42767 68.5223 8.34859 66.3394C8.55174 65.8543 11.1791 59.885 18.086 54.1313C22.4739 60.0467 30.8164 65.6926 41.7726 64.5338C63.035 62.9977 78 44.0252 78 20.7947C78 14.0304 76.5374 7.02353 73.9642 1.31024Z" fill="#279A40"/>
</svg>
